<?xml version="1.0" encoding="UTF-8" standalone="no"?>
<!DOCTYPE svg PUBLIC "-//W3C//DTD SVG 1.1//EN"
 "http://www.w3.org/Graphics/SVG/1.1/DTD/svg11.dtd">
<!-- Generated by graphviz version 5.0.0 (20220707.1540)
 -->
<!-- Title: StorageDiagram Pages: 1 -->
<svg width="1105pt" height="207pt"
 viewBox="0.00 0.00 1105.35 207.40" xmlns="http://www.w3.org/2000/svg" xmlns:xlink="http://www.w3.org/1999/xlink">
<g id="graph0" class="graph" transform="scale(1 1) rotate(0) translate(4 203.4)">
<title>StorageDiagram</title>
<polygon fill="white" stroke="transparent" points="-4,4 -4,-203.4 1101.35,-203.4 1101.35,4 -4,4"/>
<!-- 2 -->
<g id="node1" class="node">
<title>2</title>
<polygon fill="#f2f2f2" stroke="black" points="0,-50.1 0,-198.9 810.92,-198.9 810.92,-50.1 0,-50.1"/>
<text text-anchor="middle" x="405.46" y="-182.3" font-family="Courier New" font-size="14.00">Privacy &lt;&lt;Contract&gt;&gt;</text>
<polyline fill="none" stroke="black" points="0,-174.1 810.92,-174.1 "/>
<text text-anchor="middle" x="24.8" y="-157.5" font-family="Courier New" font-size="14.00">slot</text>
<polyline fill="none" stroke="black" points="0,-149.3 49.61,-149.3 "/>
<text text-anchor="middle" x="24.8" y="-132.7" font-family="Courier New" font-size="14.00">0</text>
<polyline fill="none" stroke="black" points="0,-124.5 49.61,-124.5 "/>
<text text-anchor="middle" x="24.8" y="-107.9" font-family="Courier New" font-size="14.00">1</text>
<polyline fill="none" stroke="black" points="0,-99.7 49.61,-99.7 "/>
<text text-anchor="middle" x="24.8" y="-83.1" font-family="Courier New" font-size="14.00">2</text>
<polyline fill="none" stroke="black" points="0,-74.9 49.61,-74.9 "/>
<text text-anchor="middle" x="24.8" y="-58.3" font-family="Courier New" font-size="14.00">3&#45;5</text>
<polyline fill="none" stroke="black" points="49.61,-50.1 49.61,-174.1 "/>
<text text-anchor="middle" x="430.26" y="-157.5" font-family="Courier New" font-size="14.00">type: &lt;inherited contract&gt;.variable (bytes)</text>
<polyline fill="none" stroke="black" points="49.61,-149.3 810.92,-149.3 "/>
<text text-anchor="middle" x="239.82" y="-132.7" font-family="Courier New" font-size="14.00">unallocated (31)</text>
<polyline fill="none" stroke="black" points="430.03,-124.5 430.03,-149.3 "/>
<text text-anchor="middle" x="620.24" y="-132.7" font-family="Courier New" font-size="14.00">bool: locked (1)</text>
<polyline fill="none" stroke="black" points="49.61,-124.5 810.92,-124.5 "/>
<text text-anchor="middle" x="429.82" y="-107.9" font-family="Courier New" font-size="14.00">uint256: ID (32)</text>
<polyline fill="none" stroke="black" points="49.61,-99.7 810.92,-99.7 "/>
<text text-anchor="middle" x="124.82" y="-83.1" font-family="Courier New" font-size="14.00">unallocated (28)</text>
<polyline fill="none" stroke="black" points="200.03,-74.9 200.03,-99.7 "/>
<text text-anchor="middle" x="304.64" y="-83.1" font-family="Courier New" font-size="14.00">uint16: awkwardness (2)</text>
<polyline fill="none" stroke="black" points="409.26,-74.9 409.26,-99.7 "/>
<text text-anchor="middle" x="513.87" y="-83.1" font-family="Courier New" font-size="14.00">uint8: denomination (1)</text>
<polyline fill="none" stroke="black" points="618.49,-74.9 618.49,-99.7 "/>
<text text-anchor="middle" x="714.7" y="-83.1" font-family="Courier New" font-size="14.00">uint8: flattening (1)</text>
<polyline fill="none" stroke="black" points="49.61,-74.9 810.92,-74.9 "/>
<text text-anchor="middle" x="429.82" y="-58.3" font-family="Courier New" font-size="14.00">bytes32[3]: data (96)</text>
</g>
<!-- 1 -->
<g id="node2" class="node">
<title>1</title>
<polygon fill="#f2f2f2" stroke="black" points="846.92,-0.5 846.92,-124.5 1097.35,-124.5 1097.35,-0.5 846.92,-0.5"/>
<text text-anchor="middle" x="972.14" y="-107.9" font-family="Courier New" font-size="14.00">bytes32[3]: data &lt;&lt;Array&gt;&gt;</text>
<polyline fill="none" stroke="black" points="846.92,-99.7 1097.35,-99.7 "/>
<text text-anchor="middle" x="871.72" y="-83.1" font-family="Courier New" font-size="14.00">slot</text>
<polyline fill="none" stroke="black" points="846.92,-74.9 896.52,-74.9 "/>
<text text-anchor="middle" x="871.72" y="-58.3" font-family="Courier New" font-size="14.00">3</text>
<polyline fill="none" stroke="black" points="846.92,-50.1 896.52,-50.1 "/>
<text text-anchor="middle" x="871.72" y="-33.5" font-family="Courier New" font-size="14.00">4</text>
<polyline fill="none" stroke="black" points="846.92,-25.3 896.52,-25.3 "/>
<text text-anchor="middle" x="871.72" y="-8.7" font-family="Courier New" font-size="14.00">5</text>
<polyline fill="none" stroke="black" points="896.52,-0.5 896.52,-99.7 "/>
<text text-anchor="middle" x="996.94" y="-83.1" font-family="Courier New" font-size="14.00">type: variable (bytes)</text>
<polyline fill="none" stroke="black" points="896.52,-74.9 1097.35,-74.9 "/>
<text text-anchor="middle" x="996.93" y="-58.3" font-family="Courier New" font-size="14.00">bytes32 (32)</text>
<polyline fill="none" stroke="black" points="896.52,-50.1 1097.35,-50.1 "/>
<text text-anchor="middle" x="996.93" y="-33.5" font-family="Courier New" font-size="14.00">bytes32 (32)</text>
<polyline fill="none" stroke="black" points="896.52,-25.3 1097.35,-25.3 "/>
<text text-anchor="middle" x="996.93" y="-8.7" font-family="Courier New" font-size="14.00">bytes32 (32)</text>
</g>
<!-- 2&#45;&gt;1 -->
<g id="edge1" class="edge">
<title>2:9&#45;&gt;1</title>
<path fill="none" stroke="black" d="M810.92,-62.5C819.22,-62.5 827.75,-62.5 836.37,-62.5"/>
<polygon fill="black" stroke="black" points="836.5,-66 846.5,-62.5 836.5,-59 836.5,-66"/>
</g>
</g>
</svg>
